<?xml version="1.0" encoding="UTF-8"?>
<!DOCTYPE svg PUBLIC "-//W3C//DTD SVG 1.1//EN" "http://www.w3.org/Graphics/SVG/1.1/DTD/svg11.dtd">
<svg xmlns="http://www.w3.org/2000/svg" version="1.1" width="48px" height="48px" style="shape-rendering:geometricPrecision; text-rendering:geometricPrecision; image-rendering:optimizeQuality; fill-rule:evenodd; clip-rule:evenodd" xmlns:xlink="http://www.w3.org/1999/xlink">
<g><path style="opacity:1" fill="##EAB308" d="M 34.5,8.5 C 27.1667,8.5 19.8333,8.5 12.5,8.5C 12.5,7.5 12.5,6.5 12.5,5.5C 19.8333,5.5 27.1667,5.5 34.5,5.5C 34.5,6.5 34.5,7.5 34.5,8.5 Z"/></g>
<g><path style="opacity:1" fill="#EAB308" d="M 12.5,8.5 C 12.5,9.5 12.5,10.5 12.5,11.5C 19.8333,11.5 27.1667,11.5 34.5,11.5C 34.5,10.5 34.5,9.5 34.5,8.5C 35.5,8.5 36.5,8.5 37.5,8.5C 37.5,19.5 37.5,30.5 37.5,41.5C 28.1667,41.5 18.8333,41.5 9.5,41.5C 9.5,30.5 9.5,19.5 9.5,8.5C 10.5,8.5 11.5,8.5 12.5,8.5 Z"/></g>
<g><path style="opacity:1" fill="##EAB308" d="M 12.5,8.5 C 19.8333,8.5 27.1667,8.5 34.5,8.5C 34.5,9.5 34.5,10.5 34.5,11.5C 27.1667,11.5 19.8333,11.5 12.5,11.5C 12.5,10.5 12.5,9.5 12.5,8.5 Z"/></g>
<g><path style="opacity:1" fill="#fff" d="M 12.5,16.5 C 15.5,16.5 18.5,16.5 21.5,16.5C 21.5,17.8333 21.5,19.1667 21.5,20.5C 18.5,20.5 15.5,20.5 12.5,20.5C 12.5,19.1667 12.5,17.8333 12.5,16.5 Z"/></g>
<g><path style="opacity:1" fill="#fff" d="M 25.5,16.5 C 28.5,16.5 31.5,16.5 34.5,16.5C 34.5,17.8333 34.5,19.1667 34.5,20.5C 31.5,20.5 28.5,20.5 25.5,20.5C 25.5,19.1667 25.5,17.8333 25.5,16.5 Z"/></g>
<g><path style="opacity:1" fill="#fff" d="M 12.5,24.5 C 15.5,24.5 18.5,24.5 21.5,24.5C 21.5,25.8333 21.5,27.1667 21.5,28.5C 18.5,28.5 15.5,28.5 12.5,28.5C 12.5,27.1667 12.5,25.8333 12.5,24.5 Z"/></g>
<g><path style="opacity:1" fill="#fff" d="M 25.5,24.5 C 28.5,24.5 31.5,24.5 34.5,24.5C 34.5,25.8333 34.5,27.1667 34.5,28.5C 31.5,28.5 28.5,28.5 25.5,28.5C 25.5,27.1667 25.5,25.8333 25.5,24.5 Z"/></g>
<g><path style="opacity:1" fill="#fff" d="M 12.5,32.5 C 15.5,32.5 18.5,32.5 21.5,32.5C 21.5,33.8333 21.5,35.1667 21.5,36.5C 18.5,36.5 15.5,36.5 12.5,36.5C 12.5,35.1667 12.5,33.8333 12.5,32.5 Z"/></g>
<g><path style="opacity:1" fill="#fff" d="M 25.5,32.5 C 28.5,32.5 31.5,32.5 34.5,32.5C 34.5,33.8333 34.5,35.1667 34.5,36.5C 31.5,36.5 28.5,36.5 25.5,36.5C 25.5,35.1667 25.5,33.8333 25.5,32.5 Z"/></g>
</svg>
